# xmcd
#
# Track frame offsets: 
#        150
#        22201
#        42984
#        58772
#        79837
#        101989
#        123825
#        141825
#        166178
#        186553
#        207789
#
# Disc length: 3198 seconds
#
# Revision: 0
# Processed by: cddbd v1.5.2PL0 Copyright (c) Steve Scherf et al.
# Submitted via: ExactAudioCopy v0.95b4
#
DISCID=a00c7c0b
DTITLE=Mike Zito - America's Most Wanted
DYEAR=2000
DGENRE=Blues
TTITLE0=America's Most Wanted
TTITLE1=Crazy People
TTITLE2=Deal Me In
TTITLE3=Rocket Man
TTITLE4=Devil Woman
TTITLE5=You Don't Know Me
TTITLE6=Headrush
TTITLE7=Tug of War
TTITLE8=1000 Ways to Die
TTITLE9=Troubles, Lies and Mysteries
TTITLE10=I Could Make You Feel Good
EXTD=
EXTT0=
EXTT1=
EXTT2=
EXTT3=
EXTT4=
EXTT5=
EXTT6=
EXTT7=
EXTT8=
EXTT9=
EXTT10=
PLAYORDER=
